<svg width="32" height="32" xmlns="http://www.w3.org/2000/svg">
 <title/>

 <g>
  <title>background</title>
  <rect fill="none" id="canvas_background" height="34" width="34" y="-1" x="-1"/>
 </g>
 <g>
  <title>Layer 1</title>
  <path fill="#ffffff" id="svg_1" d="m29.718463,23.939242l-3.65,-4.48l-0.13,-7.89a1,1 0 0 0 0,-0.16c-1.15,-6.26 -4.79,-9.84 -10,-9.84c-5.5,0 -9.92,4 -11,9.82a1,1 0 0 0 0,0.18l-0.13,8l-2.73,4.48a1,1 0 0 0 0,1a1,1 0 0 0 0.86,0.52l9,0a4,4 0 0 0 8,0l9,0a1,1 0 0 0 0.9,-0.57a1,1 0 0 0 -0.12,-1.06zm-13.78,3.63a2,2 0 0 1 -2,-2l4,0a2,2 0 0 1 -2,2zm-11.23,-4l2,-3.24a1,1 0 0 0 0.14,-0.5l0.09,-8.16c0.91,-4.85 4.52,-8.1 9,-8.1c5.63,0 7.43,5 8,8.1l0.14,8.16a1,1 0 0 0 0.22,0.62l2.54,3.12l-22.13,0z"/>
 </g>
</svg>