<svg width="50" height="50" xmlns="http://www.w3.org/2000/svg">

 <g>
  <title>background</title>
  <rect fill="none" id="canvas_background" height="402" width="582" y="-1" x="-1"/>
 </g>
 <g>
  <title>Layer 1</title>
  <path fill="#ffffff" id="svg_1" d="m48.210791,1.894605l-46,0l0,46l46,0l0,-46zm-2,11l-9,0l0,-9l9,0l0,9zm-20,0l0,-9l9,0l0,9l-9,0zm9,2l0,9l-9,0l0,-9l9,0zm-11,-2l-9,0l0,-9l9,0l0,9zm0,2l0,9l-9,0l0,-9l9,0zm-11,9l-9,0l0,-9l9,0l0,9zm0,2l0,9l-9,0l0,-9l9,0zm2,0l9,0l0,9l-9,0l0,-9zm9,11l0,9l-9,0l0,-9l9,0zm2,0l9,0l0,9l-9,0l0,-9zm0,-2l0,-9l9,0l0,9l-9,0zm11,-9l9,0l0,9l-9,0l0,-9zm0,-2l0,-9l9,0l0,9l-9,0zm-24,-20l0,9l-9,0l0,-9l9,0zm-9,33l9,0l0,9l-9,0l0,-9zm33,9l0,-9l9,0l0,9l-9,0z"/>
 </g>
</svg>