<svg width="32" height="32" xmlns="http://www.w3.org/2000/svg">
 <title/>

 <g>
  <title>background</title>
  <rect fill="none" id="canvas_background" height="402" width="582" y="-1" x="-1"/>
 </g>
 <g>
  <title>Layer 1</title>
  <path fill="#ffffff" id="svg_1" d="m20,19a5,5 0 1 0 -5,-5a5,5 0 0 0 5,5zm0,-8a3,3 0 1 1 -3,3a3,3 0 0 1 3,-3z"/>
  <path fill="#ffffff" id="svg_2" d="m8.94,10a4,4 0 1 0 -4,-4a4,4 0 0 0 4,4zm0,-6a2,2 0 1 1 -2,2a2,2 0 0 1 2,-2z"/>
  <path fill="#ffffff" id="svg_3" d="m25,20l-10,0a5,5 0 0 0 -5,5l0,5l2,0l0,-5a3,3 0 0 1 3,-3l10,0a3,3 0 0 1 3,3l0,5l2,0l0,-5a5,5 0 0 0 -5,-5z"/>
  <path fill="#ffffff" id="svg_4" d="m13,11l-7,0a4,4 0 0 0 -4,4l0,4l2,0l0,-4a2,2 0 0 1 2,-2l7,0l0,-2z"/>
 </g>
</svg>